<?xml version="1.0" encoding="utf-8"?>
<!-- Generator: Adobe Illustrator 27.3.1, SVG Export Plug-In . SVG Version: 6.00 Build 0)  -->
<svg version="1.1" id="Ebene_2_00000170991986882270147270000011855866193794531214_"
	 xmlns="http://www.w3.org/2000/svg" xmlns:xlink="http://www.w3.org/1999/xlink" x="0px" y="0px" viewBox="0 0 169.8 347"
	 style="enable-background:new 0 0 169.8 347;" xml:space="preserve">
<g id="Ebene_1-2">
	<path d="M109.6,36c0,0-3.7-28.1-10.8-33.2c-2.8-2-25-2-27.8,0C63.9,8,60.2,36,60.2,36L0,91.6l37.8,33.2L61,184.2
		c0,0,6.6,33.2,11.6,43.2c2.3,4.6,3.1,7.7,11.6,7.7c0.3,0,0.5,0,0.8,0c0.3,0,0.5,0,0.8,0c8.5,0,9.3-3.1,11.6-7.7
		c5-10,11.6-43.2,11.6-43.2l23.1-59.4l37.8-33.2L109.6,36L109.6,36L109.6,36z"/>
	<path d="M77.9,242.8l-35.5,44c0,0,14.7,61,44.7,60.2s40.1-61,40.1-61l-33.2-43.2L77.9,242.8L77.9,242.8z"/>
	<path d="M165,212.2c0,0-14,54.9-30.1,57.9c-9.9,1.8-27.7-17.2-30.1-27c-2.2-8.9,4.6-36.3,4.6-36.3l26.3-79l24.1-19.7L165,212.2
		L165,212.2z"/>
	<path d="M5,212.2c0,0,14,54.9,30.1,57.9c9.9,1.8,27.7-17.2,30.1-27c2.2-8.9-4.6-36.3-4.6-36.3l-26.3-79l-24.1-19.7L5,212.2
		C5,212.2,5,212.2,5,212.2z"/>
</g>
</svg>
